<?xml version="1.0" encoding="iso-8859-1"?>
<!-- Generator: Adobe Illustrator 16.0.0, SVG Export Plug-In . SVG Version: 6.00 Build 0)  -->
<!DOCTYPE svg PUBLIC "-//W3C//DTD SVG 1.1//EN" "http://www.w3.org/Graphics/SVG/1.1/DTD/svg11.dtd">
<svg xmlns="http://www.w3.org/2000/svg" xmlns:xlink="http://www.w3.org/1999/xlink" version="1.1" id="Capa_1" x="0px" y="0px" width="512px" height="512px" viewBox="0 0 366.271 366.271" style="enable-background:new 0 0 366.271 366.271;" xml:space="preserve">
<g>
	<g>
		<path d="M205.276,37.352c-10.807,10.806-17.148,25.159-17.859,40.415c-0.118,2.521-0.076,5.03,0.114,7.518l93.448,93.448    c2.49,0.189,5.001,0.241,7.525,0.123c15.255-0.711,29.607-7.055,40.414-17.86l8.854-8.854L214.131,28.496L205.276,37.352z" fill="#FFFFFF"/>
		<path d="M364.091,115.292L250.979,2.182c-2.908-2.909-7.624-2.909-10.531-0.001L226.769,15.86l123.644,123.644l13.68-13.68    C366.999,122.915,366.999,118.2,364.091,115.292z" fill="#FFFFFF"/>
		<path d="M16.352,270.963c-21.803,21.803-21.802,57.154,0.001,78.957c21.802,21.803,57.152,21.802,78.955-0.001L256.09,189.138    l-78.957-78.957L16.352,270.963z M198.998,167.272c5.076,5.077,5.077,13.309,0,18.385l-32.526,32.527    c-5.077,5.076-13.309,5.076-18.385,0c-5.077-5.077-5.077-13.309,0-18.385l32.526-32.527    C185.691,162.197,193.922,162.197,198.998,167.272z" fill="#FFFFFF"/>
	</g>
</g>
<g>
</g>
<g>
</g>
<g>
</g>
<g>
</g>
<g>
</g>
<g>
</g>
<g>
</g>
<g>
</g>
<g>
</g>
<g>
</g>
<g>
</g>
<g>
</g>
<g>
</g>
<g>
</g>
<g>
</g>
</svg>
