<?xml version="1.0" encoding="iso-8859-1"?>
<!-- Generator: Adobe Illustrator 19.0.0, SVG Export Plug-In . SVG Version: 6.00 Build 0)  -->
<svg xmlns="http://www.w3.org/2000/svg" xmlns:xlink="http://www.w3.org/1999/xlink" version="1.1" id="Capa_1" x="0px" y="0px" viewBox="0 0 512 512" style="enable-background:new 0 0 512 512;" xml:space="preserve" width="512px" height="512px">
<g>
	<g>
		<g>
			<path d="M36.571,484.572c0.007,5.047,4.096,9.136,9.143,9.143h100.571v-18.286H45.714     C40.668,475.435,36.578,479.525,36.571,484.572z" fill="#FFFFFF"/>
			<path d="M338.286,457.143H173.714c-5.047,0.007-9.136,4.096-9.143,9.143v36.571c0.007,5.047,4.096,9.136,9.143,9.143h164.571     c5.047-0.007,9.136-4.096,9.143-9.143v-36.571C347.422,461.239,343.332,457.15,338.286,457.143z" fill="#FFFFFF"/>
			<rect x="237.714" y="411.429" width="36.571" height="27.429" fill="#FFFFFF"/>
			<path d="M475.429,283.429c8.528,0.006,16.935,2.016,24.544,5.867l-70.08-257.117c-0.401-0.769-0.687-1.594-0.848-2.446     C425.807,12.464,410.712-0.037,393.143,0H118.857c-17.568-0.034-32.662,12.466-35.902,29.733     c-0.112,0.601-0.284,1.188-0.513,1.755L12.193,289.215c7.566-3.798,15.913-5.78,24.379-5.787H475.429z" fill="#FFFFFF"/>
			<path d="M475.429,301.714H36.571c-16.518,0.052-30.944,11.184-35.185,27.148l-0.689,2.525c-0.451,2.272-0.684,4.582-0.698,6.898     v18.286c0.023,20.188,16.383,36.548,36.571,36.571h274.286v-45.714c0-5.049,4.093-9.143,9.143-9.143     c5.049,0,9.143,4.093,9.143,9.143v45.714h18.286v-45.714c0-5.049,4.093-9.143,9.143-9.143c5.049,0,9.143,4.093,9.143,9.143     v45.714H384v-45.714c0-5.049,4.093-9.143,9.143-9.143s9.143,4.093,9.143,9.143v45.714h18.286v-45.714     c0-5.049,4.093-9.143,9.143-9.143s9.143,4.093,9.143,9.143v45.714h36.571c20.189-0.022,36.55-16.383,36.571-36.571v-18.286     C511.979,318.097,495.618,301.736,475.429,301.714z M64,374.857c-15.148,0-27.429-12.28-27.429-27.429S48.852,320,64,320     s27.429,12.28,27.429,27.429C91.412,362.57,79.142,374.841,64,374.857z" fill="#FFFFFF"/>
			<circle cx="64" cy="347.429" r="9.143" fill="#FFFFFF"/>
			<path d="M466.286,475.429H365.714v18.286h100.571c5.049,0,9.143-4.093,9.143-9.143     C475.429,479.522,471.335,475.429,466.286,475.429z" fill="#FFFFFF"/>
		</g>
	</g>
</g>
<g>
</g>
<g>
</g>
<g>
</g>
<g>
</g>
<g>
</g>
<g>
</g>
<g>
</g>
<g>
</g>
<g>
</g>
<g>
</g>
<g>
</g>
<g>
</g>
<g>
</g>
<g>
</g>
<g>
</g>
</svg>
