<?xml version="1.0" encoding="iso-8859-1"?>
<!-- Generator: Adobe Illustrator 19.0.0, SVG Export Plug-In . SVG Version: 6.00 Build 0)  -->
<svg xmlns="http://www.w3.org/2000/svg" xmlns:xlink="http://www.w3.org/1999/xlink" version="1.1" id="Capa_1" x="0px" y="0px" viewBox="0 0 512 512" style="enable-background:new 0 0 512 512;" xml:space="preserve" width="512px" height="512px">
<circle cx="160" cy="320.021" r="64" fill="#FFFFFF"/>
<path d="M480,160.021H118.944l254.752-97.056c8.288-3.136,12.416-12.384,9.248-20.672c-3.136-8.288-12.384-12.416-20.64-9.248  l-336,128c-0.096,0.064-0.16,0.128-0.256,0.192C11.36,164.117,0,176.501,0,192.021v256c0,17.664,14.368,32,32,32h448  c17.664,0,32-14.336,32-32v-256C512,174.389,497.664,160.021,480,160.021z M160,416.021c-52.928,0-96-43.072-96-96s43.072-96,96-96  s96,43.072,96,96S212.928,416.021,160,416.021z M448,416.021H320v-32h128V416.021z M448,352.021H320v-32h128V352.021z M448,288.021  H320v-32h128V288.021z" fill="#FFFFFF"/>
<g>
</g>
<g>
</g>
<g>
</g>
<g>
</g>
<g>
</g>
<g>
</g>
<g>
</g>
<g>
</g>
<g>
</g>
<g>
</g>
<g>
</g>
<g>
</g>
<g>
</g>
<g>
</g>
<g>
</g>
</svg>
